PathFileType	4	(X/Y/Z)	OpenSim_Sub02_CSBaseline_Accel.trc
DataRate	CameraRate	NumFrames	NumMarkers	Units	OrigDataRate	OrigDataStartFrame	OrigNumFrames
100	100	20	8	m	100	3529	7057
Frame#	Time	torso_imu_offset_imu	pelvis_imu_offset_imu	tibia_r_imu_offset_imu	femur_r_imu_offset_imu	tibia_l_imu_offset_imu	femur_l_imu_offset_imu	toes_r_imu_offset_imu	toes_l_imu_offset_imu
				X1	Y1	Z1	X2	Y2	Z2	X3	Y3	Z3	X4	Y4	Z4	X5	Y5	Z5	X6	Y6	Z6	X7	Y7	Z7	X8		Y8	Z8	

3529	35.28000000	8.74003261	0.49925478	7.84180724	9.79483655	-0.20730496	3.51847937	4.68232154	6.15994700	3.37393987	10.13938784	-2.03552776	2.18777952	10.06005319	1.72949748	-0.13337192	9.57340604	-0.49033920	-2.89794284	2.17129656	0.63181175	6.51388410	3.61196612	0.87892977	11.75775351
3530	35.29000000	8.42449936	0.36132593	7.69451622	9.56052525	-0.66050356	3.39205723	4.02603168	4.00385707	4.53683673	9.59134729	-2.25825081	2.05338090	9.85821308	1.00912763	-0.65591118	9.46159902	0.59881709	-2.68482732	4.03894781	-0.26291513	7.41714380	3.55912107	1.08173732	12.11823049
3531	35.30000000	8.21133398	0.21840592	7.53914219	9.30113707	-1.13361581	3.26069155	3.95959770	1.84324679	5.97743021	9.07297077	-2.29684208	1.98635807	9.68933670	0.22778260	-0.70785598	9.36409575	0.85089982	-2.39917360	5.62882615	-1.14573600	8.50613183	3.53346304	0.97173409	11.80578030
3532	35.31000000	7.98195206	0.11571610	7.46708037	9.07465920	-1.40429590	3.11478310	4.09045248	0.70648029	6.12311898	8.50309070	-2.37572616	1.89520915	9.61255142	-0.24097050	-0.40117076	9.14538353	0.89855278	-2.23161848	6.85730657	-0.73941910	9.49248607	3.90926917	1.00603977	11.76858907
3533	35.32000000	7.82076644	0.06550173	7.23196291	8.99264497	-1.53451833	3.04719259	4.37016199	1.28769363	5.69625414	8.07857664	-2.45240435	1.82951212	9.67090076	-0.42575515	-0.30205046	9.04986002	0.79401140	-1.98623320	6.95270610	1.37078442	9.76070573	3.94104638	0.99154380	11.78244044
3534	35.33000000	7.64658170	0.13488335	7.10669600	9.03265511	-1.52681692	3.03139633	4.97881014	2.84530388	5.21643154	7.84238286	-2.44576329	1.86009881	9.60242822	-0.58080714	-0.14933716	9.06870741	0.52287056	-1.75477111	5.67249340	3.77180800	9.27703526	3.97249003	0.83822988	11.76764903
3535	35.34000000	7.61578727	0.18844380	7.07102083	9.09671822	-1.32494390	2.94613325	5.59794437	4.46796052	4.75477757	7.73058994	-2.45266418	1.97564501	9.46288922	-0.65046326	0.14805538	9.17031484	0.24060776	-1.70300145	4.57554524	5.36253178	8.72663238	3.59575652	1.05196315	11.80010527
3536	35.35000000	7.66814947	0.25069999	7.06879465	8.97700763	-1.22630135	2.89292794	5.64593848	5.30964964	4.05707172	7.72713352	-2.38324377	2.23989245	9.41631200	-0.63041776	0.38334885	9.29687862	-0.04985208	-1.66177017	4.49524581	5.34226211	8.24253721	4.05283990	0.89889788	11.74928601
3537	35.36000000	7.75219476	0.28101929	7.08073526	8.76401258	-1.18809246	2.86380398	5.18790720	5.28317121	3.27762318	7.80000571	-2.35355571	2.60586742	9.39349524	-0.58844239	0.62457606	9.32674662	-0.28193106	-1.69481838	4.94447967	4.13650594	8.18926057	3.98701296	0.75437106	11.74217813
3538	35.37000000	7.76669665	0.29351556	7.06416558	8.62320296	-1.12608649	2.77358540	4.79107857	4.77616941	3.36488456	7.87268502	-2.14495178	2.78718127	9.43111468	-0.62033135	0.85907635	9.36414682	-0.48934324	-1.83310846	5.84523855	2.61124246	8.38160907	3.92681491	0.70860401	11.71834781
3539	35.38000000	7.72157604	0.34798099	7.08605499	8.49409812	-1.07194318	2.71941753	4.86917484	4.21713461	3.81737748	7.96558881	-1.97035832	2.76435263	9.44382535	-1.07960937	0.71664545	9.35945346	-0.61266210	-1.90035838	6.75715151	1.75672611	8.74132861	3.65840892	0.82187028	11.90191679
3540	35.39000000	7.70351854	0.42389018	7.08141101	8.45980642	-1.00374341	2.67725399	5.34904788	3.95128151	4.03167827	7.93009143	-2.00140741	2.72485711	9.47244591	-1.52673725	0.91383441	9.36701004	-0.57524525	-1.96375811	7.07033110	1.65780388	8.83205535	3.49538472	0.81444765	11.82319152
3541	35.40000000	7.73885986	0.43424819	7.11282526	8.43289403	-1.09617617	2.65369661	5.96891726	4.17172320	4.33438099	7.75676142	-1.82722781	2.52011354	9.46609379	-1.73185158	0.99129804	9.45453223	-0.68539002	-2.06319387	6.48671966	1.75030097	8.57044800	3.87912675	0.85538037	11.71387722
3542	35.41000000	7.80179055	0.45801486	7.19828882	8.46699691	-1.09369438	2.52331769	6.53075498	4.91483323	4.36443754	7.52979371	-1.75364061	2.33196998	9.54811564	-1.69764598	0.90380474	9.27697308	-0.68191337	-2.11381013	6.42540887	1.28082395	8.71300873	3.76788519	0.77017182	11.73907751
3543	35.42000000	7.84892953	0.45133890	7.22169138	8.51280908	-1.11758927	2.39860841	6.84893307	6.04328402	4.09956257	7.23729813	-1.67458628	2.25725429	9.64478267	-1.80242338	0.91152759	9.02593950	-0.59934032	-2.19266733	7.03634453	0.11368412	9.44643693	3.83084499	0.72563570	11.74753501
3544	35.43000000	7.84580956	0.40890727	7.27784865	8.58234811	-1.26868983	2.31466773	6.85887318	7.21013669	3.51438893	6.99747831	-1.67475113	2.32822172	9.60487186	-1.86494033	0.78286818	9.43545289	-0.65800123	-2.23873461	8.04925783	-0.73917840	10.58761688	3.29043281	0.83770583	11.86386291
3545	35.44000000	7.78944844	0.41624336	7.39006920	8.69906103	-1.38422928	2.24041283	6.78532157	7.52364065	3.12974430	6.80150803	-1.75049634	2.53706015	9.66889639	-1.85410811	0.78690917	9.45219589	-0.66738016	-2.17595500	9.21861075	-0.81943658	11.79972321	3.77007287	0.77841471	11.83114889
3546	35.45000000	7.80923981	0.37805778	7.44566202	8.86989604	-1.41057691	2.11839171	7.01614223	6.42473111	3.41205324	6.74287244	-1.95825395	2.80957432	9.62897979	-1.91178619	0.87542233	9.34845327	-0.71994933	-2.08827626	10.26489119	-0.39984897	12.88222467	3.90022271	0.51885214	11.69687725
3547	35.46000000	7.78437534	0.34206730	7.48171944	8.88210743	-1.58308329	2.07559032	7.57608154	4.30554125	3.89081440	6.84907906	-2.22537518	3.14274909	9.71826781	-1.98877641	0.60188774	9.28738818	-0.73327504	-2.03182988	11.41918924	-0.11298637	13.50169143	4.09922350	0.62105518	11.61584397
3548	35.47000000	7.85680325	0.27684806	7.58666642	8.90226594	-1.61910709	1.99897347	8.40615867	1.96947326	4.29566162	7.11430432	-2.54513914	3.41565467	9.87765606	-1.96738002	0.46353918	9.57786667	-0.72352092	-2.13820549	12.51747780	-0.46102146	13.49725259	3.66030075	0.68992092	11.82130388
